<?xml version="1.0" encoding="UTF-8"?>
<svg id="face" data-name="Calque 1" xmlns="http://www.w3.org/2000/svg" viewBox="0 0 595.28 841.89">
  <path d="M392.27,617.07s9.93-7.38,12.39-9.32c34.53-27.17,52.08-69.35,64.04-110.54,33.87,9.8,61.09-26.56,72.84-53.62,9.76-22.49,15.55-50.82,8.27-74.79-5.67-18.67-20.56-30.5-40.64-25.38l3.51-34.04-1.16.59c.43-4.32-.58-9.65-.05-13.83.14-1.12,1.12-.56,1.27-1.68.75-5.98-.6-16.01-1.29-22.27-1.31-11.81-3.94-23.4-6.39-34.99l-1.75.59c-.03-3.05-1.47-5.79-2.03-8.71-3.87-20.32-14.66-41.99-25.65-59.57-11.15-17.84-24.99-33.96-40.66-47.95l-1.79-.59-.58,1.21c-2.5-2.09-5.62-2.46-4.51-6.35-18.27-13.39-38.3-25.33-60.34-31.22v2.36c-.28.29-6.66-1.4-7.22-1.75-.87-.54-.45-2.13-1.13-2.82-.89-.91-21.97-4.78-24.98-5.24-11.06-1.69-20.41-1.84-31.54-1.96-13.83-.14-27.65-.15-41.47,1.96-3.04.46-24.48,4.4-25.16,5.5-.43.7-.14,2.14-.95,2.56-.72.37-6.91,2.05-7.21,1.75-.22-.87.73-2.49-.86-2.34-2.81.26-11.31,3.74-14.38,5-16.17,6.62-31.08,15.92-45.1,26.2,1.11,3.88-1.97,4.23-4.51,6.35-.56-3.08-5.74,2.38-7.33,3.8-21.24,19.07-41.05,48.95-52.32,75.02-4.32,9.98-6.95,17.54-8.96,28.01-.56,2.94-2.11,5.69-2.09,8.77l-1.75-.59c-1.74,8.73-3.88,17.38-5.19,26.21-1.23,8.29-3.49,23.12-2.49,31.05.14,1.12,1.12.56,1.27,1.68.53,4.18-.48,9.51-.05,13.83l-1.16-.59,3.51,34.04c-14.91-3.93-28.6,1.92-36.26,15.08-23.07,39.63,9.57,125.66,54.01,138.83,8,2.37,14.73,1.96,22.72-.13,13.15,45.85,33.99,93.01,75.98,119.14l11.48,7.01c18.86,12.69,39.37,21.26,61.36,26.95,18.23,4.72,26.69,4.49,44.84-.25,21.67-5.66,41.82-14.25,60.43-26.7M124.18,487.73c-21.52,6.06-42.14-16.38-52.39-32.84-14.74-23.66-26.94-66.2-12.18-91.9,8.36-14.56,24.05-15.36,37.84-7.72,1.51.84,6.21,4.73,6.71,6.2,1.17,3.4.89,10,1.38,13.88,3.92,30.59,9.28,61.11,14.78,91.44.51,2.81,4.46,20,3.85,20.94ZM421.63,578.36c-21.93,30.21-80.7,65.33-118.1,67.33-44.06,2.36-108.57-35.98-132.59-72.26-24.91-37.64-36.56-74.9-44.77-118.96-7.22-38.78-14.99-75.25-17.8-114.83-.59-8.27.79-17.63-4.38-24.95l-1.47,6.45-7.62-3.52c.12,9.49-.2,19.81,1.66,29.15.4,2.01-3.41-1.16-4.04-1.38.1-6.42-.85-12.89-1.17-19.24-.15-2.93.79-9.58-.81-11.53-1.31-1.59-2.69-1.16-2.69-4.93v-11.44l4.1,1.76c.75-17.41,3.53-34.7,8.1-51.51.55-2.96-4.94-5.28-5.16-7.48l2.36-9.67,5.57,5.85c3.42-7.86,5.63-16.43,8.99-24.45,3.04-7.26,6.8-14.27,10.55-21.18-.47-6.49-6.78-9.37.11-15.4l3.25,7.03c.59.96.94.34,1.45-.28,2.81-3.37,5.58-8.98,8.32-12.81,8.59-11.97,18.33-23.1,29.54-32.7-.02-6.14-3.48-10.69,4.38-13.48l1.47,8.21c16.3-12.86,34.25-23.78,54.03-30.47l2.31-10.01,7.63-2.93-1.25,9.35.64,1.19c19.29-5.53,39.6-6.87,59.57-5.26l.67-14.3.88-.88c.52-.17,1.11-.06,1.65-.11,1.25-.11,3.91-.33,4.35.99l.67,14.3c19.96-1.58,40.31-.31,59.57,5.26l.64-1.19c-.51-2.86-.89-5.73-1.43-8.58-.16-.85-.17-.96.74-.73.95.24,6.76,2.48,7.08,2.91,1.4,1.9.46,8.34,2.31,10.01,1.08.98,9.61,3.56,11.88,4.55,15.19,6.6,29.13,15.76,42.15,25.92l1.47-8.21c7.86,2.78,4.4,7.36,4.38,13.48,11.21,9.59,20.95,20.73,29.54,32.7,2.74,3.82,5.51,9.44,8.32,12.81.52.62.86,1.24,1.45.28l3.25-7.03c6.9,6.03.58,8.91.11,15.4,3.74,6.91,7.5,13.92,10.55,21.18,3.36,8.02,5.57,16.58,8.99,24.45l5.57-5.86,2.36,9.67c-.22,2.2-5.71,4.52-5.16,7.48,4.57,16.8,7.35,34.09,8.1,51.51l4.1-1.76v11.44c0,3.77-1.38,3.33-2.69,4.93-1.6,1.95-.66,8.6-.81,11.53-.33,6.36-1.27,12.82-1.17,19.24l-3.26,2.15c-.77.33-.93,0-.78-.77,1.87-9.34,1.54-19.66,1.66-29.15l-7.62,3.52-1.47-6.45c-6.06,10.35-4.05,23.33-4.99,34.9-2.89,35.4-10.69,70.06-17.18,104.88-8.2,44.02-21.45,87.24-48.05,123.89ZM506.24,476.36c-9.08,7.92-22.2,15.65-34.55,11.36-.62-.95,3.34-18.14,3.85-20.94,5.51-30.33,10.87-60.85,14.78-91.44.5-3.88.21-10.47,1.38-13.88,1.57-4.56,13.02-9.14,17.44-10.14,16.92-3.81,26.83,6.33,31.27,21.58,9.52,32.71-8.96,81.45-34.18,103.45Z"/>
  <path d="M87.87,298.24l4.1,1.76c.75-17.41,3.53-34.7,8.1-51.51.55-2.96-4.94-5.28-5.16-7.48l2.36-9.67,5.57,5.85c3.43-7.86,5.63-16.43,8.99-24.45,3.04-7.26,6.8-14.27,10.55-21.18-.47-6.49-6.78-9.37.11-15.4l3.25,7.03c.59.96.94.34,1.45-.28,2.81-3.37,5.58-8.98,8.32-12.81,8.59-11.97,18.33-23.1,29.54-32.7-.02-6.14-3.48-10.69,4.38-13.48l1.47,8.21c16.3-12.86,34.25-23.78,54.03-30.47l2.31-10.01,7.63-2.93-1.25,9.35.64,1.19c19.29-5.53,39.6-6.87,59.57-5.26l.67-14.3.88-.88c.52-.17,1.11-.06,1.65-.11,1.25-.11,3.91-.33,4.35.99l.67,14.3c19.96-1.58,40.31-.31,59.57,5.26l.64-1.19c-.51-2.86-.89-5.73-1.43-8.58-.16-.85-.17-.96.74-.73s6.76,2.48,7.08,2.91c1.4,1.9.46,8.34,2.31,10.01,1.08.98,9.61,3.56,11.88,4.55,15.19,6.6,29.13,15.76,42.15,25.92l1.47-8.21c7.86,2.78,4.4,7.36,4.38,13.48,11.21,9.59,20.95,20.73,29.54,32.7,2.74,3.82,5.51,9.44,8.32,12.81.52.62.86,1.24,1.45.28l3.25-7.03c6.9,6.03.58,8.91.11,15.4,3.74,6.91,7.5,13.92,10.55,21.18,3.36,8.02,5.57,16.58,8.99,24.45l5.57-5.86,2.36,9.67c-.22,2.2-5.71,4.52-5.16,7.48,4.57,16.8,7.35,34.09,8.1,51.51l4.1-1.76v11.44c0,3.77-1.38,3.33-2.69,4.93-1.6,1.95-.66,8.6-.81,11.53-.33,6.36-1.27,12.82-1.17,19.24l-3.26,2.15c-.77.33-.93,0-.78-.77,1.87-9.34,1.54-19.66,1.66-29.15l-7.62,3.52-1.47-6.45c-6.06,10.35-4.05,23.33-4.99,34.9-2.89,35.4-10.69,70.06-17.18,104.88-8.2,44.02-21.45,87.24-48.05,123.89-21.93,30.21-80.7,65.33-118.1,67.33-44.06,2.36-108.57-35.98-132.59-72.26-24.91-37.64-36.56-74.9-44.77-118.96-7.22-38.78-14.99-75.25-17.8-114.83-.59-8.27.79-17.63-4.38-24.95l-1.47,6.45-7.62-3.52c.12,9.49-.2,19.81,1.66,29.15.4,2.01-3.41-1.16-4.04-1.38.1-6.42-.85-12.89-1.17-19.24-.15-2.93.79-9.58-.81-11.53-1.31-1.59-2.69-1.16-2.69-4.93v-11.44ZM293.83,98.71c-20.57-.64-41.12,1.74-60.64,8.17-1.95,9.06-1.64,18.91-.97,28.22,20.51-3.71,41.22-9.81,62.2-9.39l-.59-27ZM362.92,107.07c-19.51-6.73-40.26-8.94-60.89-8.36l-.59,27c21.06-.44,41.63,5.71,62.2,9.39.81-9.35.7-18.83-.72-28.03ZM224.58,110.45c-18.85,6.14-35.96,16.75-51.5,28.87-1.2,2.05,4.05,19.18,5.14,22.49,6.29-3.4,11.83-8.23,18.02-11.94,8.71-5.21,18.04-9.34,27.68-12.52l.67-26.91ZM422.78,139.32c-15.56-12.09-32.64-22.75-51.5-28.87l.67,26.91c16.72,5.09,31.49,14.37,45.4,24.72,1.49-2.95,6.54-20.86,5.44-22.75ZM167.08,145.07c-10.98,9.37-21.45,21.41-29.81,33.27-1.36,1.93-7.08,9.84-7.5,11.33-.29,1.02-.18,1.25.21,2.18.55,1.34,6.85,11.75,7.54,11.89,2.8-1.89,4.48-5.69,6.71-8.46,8.25-10.27,18.2-19.49,27.83-28.46l-4.97-21.74ZM428.79,145.07l-4.67,19.73.28,2.56c9.43,8.78,19.17,17.86,27.25,27.91,2.23,2.77,3.91,6.57,6.71,8.46.69-.14,6.98-10.55,7.54-11.89.38-.93.5-1.15.21-2.18-.42-1.49-6.14-9.4-7.5-11.33-3.42-4.86-7.23-9.63-11.05-14.18-1.33-1.58-17.72-20.14-18.76-19.09ZM125.72,196.73c-4.23,7.45-8.15,15.19-11.55,23.06-1.96,4.54-6.86,15.28-7.42,19.63-.15,1.12-.11,1.26.45,2.21.35.6,7.5,6.57,8.01,6.69.9.21,1.21-.73,1.54-1.31,4.24-7.5,7.7-19.32,11.69-27.63,1.02-2.13,4.86-7.3,5.11-9.01.28-1.89-6.7-11.11-7.82-13.64ZM470.15,196.73c-1.13,2.53-8.1,11.75-7.82,13.64.19,1.25,5.92,11.12,7.05,13.54,3.6,7.7,6.84,15.59,9.94,23.51l1.3.89c2.23-2.09,8.92-5.64,8.5-8.87-.57-4.38-5.46-15.06-7.42-19.63-3.38-7.88-7.21-15.68-11.55-23.06ZM395.8,238.55c-7.72.77-24.19,7.65-29.52,13.31-9.68,10.27-4.74,22.71,8.39,25.67,12.26,2.77,43.77-4.56,49.27-17.3,7.13-16.54-15.88-22.91-28.14-21.69ZM193.37,239.73c-8.51.86-20.42,5.13-21.45,14.96-1.78,16.89,30.5,24.48,43,24.77,22.36.52,28.84-20.15,9.1-31.4-9.03-5.15-20.11-9.4-30.64-8.33ZM113.06,256.63c-3.21-.72-5.73-3.99-8.45-5.36-.49-.25-.6-1.01-1.2.01-1.26,2.16-3.01,13.1-3.62,16.33-2.2,11.63-4.34,24.11-4,35.91.37.61,9.6,6.33,10.55,6.47,1.02.15.93.03.82-.86-.2-1.7-.39-4.78-.31-6.4.37-7.64,1.21-17.13,2.14-24.74s2.94-14.21,4.06-21.37ZM488.63,309.98c.65.68,10.39-5.27,11.14-6.16,1.22-1.46.23-9.85,0-12.32-.99-10.54-3.16-22.84-5.56-33.17-.28-1.21-1.61-7.61-2.35-7.61l-9.14,6.22c1.38,7.01,3.28,13.95,4.15,21.06.94,7.68,1.9,17.56,2.23,25.23.04,1.01-.69,6.5-.46,6.74ZM451.66,312.91c-6.41-8.92-19.2-15.1-29.92-17.31-21.07-4.36-45.85,4.21-59.84,20.56-.46.54-3.36,3.99-2.95,4.38.95.16,1.59-.45,2.3-.93,3.65-2.49,7.31-6.53,11.26-9.28,19.75-13.76,40.77-18.26,63.11-6.91,5.47,2.78,10.43,6.9,16.04,9.48ZM238.08,321.71c.42-.39-2.49-3.84-2.95-4.38-7.65-8.94-24.07-18.57-35.64-20.69-19.61-3.59-40.94,1.81-54.11,17.16.54.94,1.32-.22,1.82-.53,24.6-15.4,42.36-21.78,69.78-6.53,7.59,4.22,12.26,9.6,18.81,14.05.71.48,1.35,1.08,2.3.93ZM457.96,327.76c-22.81-17.89-55.75-19.99-80.62-4.97-12.41,7.5-23.29,24.5-28.46,37.85-1.6,4.14-5.03,11.88-1.68,15.38,7.28,7.59,25.89,12.79,36.18,13.7,37.93,3.33,70-23.48,75.03-60.7l-.46-1.25ZM139.08,328.94c-1.72,2.05,2.41,14.08,3.51,16.99,13.7,36.2,48.94,50.76,85.64,40.76,4.59-1.25,20.63-8.28,21.94-12.72s-7.29-22.94-10.02-27.61c-18.09-30.95-54.52-40.51-86.96-25.91-3.46,1.56-11.84,5.78-14.11,8.5ZM270.36,452.59l2.82-5.68,4.8-7.23c-4.33,2.18-7.2,8.16-7.62,12.91ZM325.5,452.59c-.42-4.75-3.29-10.73-7.62-12.91l4.8,7.23,2.82,5.68ZM259.71,443.29l-1.49-.56c-9.44,6.14-16.43,28.73-5.76,36.26,2.22,1.57,4.15.86,6.75,1.17-6.96-5.67-7.98-14.67-4.98-22.87,1.12-3.07,7.17-11.35,5.48-14ZM336.66,480.17c4.26.03,6.34.06,9.11-3.5,6.33-8.15,1.67-23.06-4.17-30.48-1.32-1.67-3.34-4.45-5.44-2.9-1.69,2.66,4.73,11.55,5.81,14.85,2.5,7.65,1.5,16.95-5.3,22.02ZM334.72,465.08c-.91-1.13-5.94-3.66-7.44-4-9.96-2.25-17.61,13.57-31.92,11.98-12-1.34-18.16-17.44-31.28-10.04-7.94,4.48-1.32,10.28,5.11,10.09l-2.35-2.34c4.03,1.54,9.24.52,13.07,1.3,6.14,1.26,8.89,7.9,18.92,7.52,8.32-.31,11.48-6.14,17.13-7.52,3.84-.94,9.05.27,13.07-1.3l-2.35,2.34c3.91.94,11.26-4,8.04-8.04ZM353.67,525.36c.6-.72-3.62-5.64-4.4-6.45-8.14-8.4-22.64-18.27-34.59-18.81-7.2-.33-10.92,2.4-16.56,6.39-6.55-4.08-9.9-6.96-18.08-6.35-9.08.67-18.22,6.28-25.22,11.74-4.59,3.58-9.89,8.01-12.64,13.18,5.82-1.48,10.26-6.17,15.31-9.33,6.57-4.11,19.25-12.48,26.97-11.82,4.98.43,9.07,4.54,13.66,6.06,4.05-1.78,9.18-5.91,13.67-6.11,7.64-.35,20.04,7.77,26.56,11.87,5.12,3.22,9.54,7.62,15.3,9.63ZM317.29,532.4c-12.48,5.72-26.24,5.72-38.71,0-.45,2,1.54,2.61,2.35,3.81.38.56.97.52,0,1.17-1.63,1.09-7.56,2.7-9.72,3.19-8.07,1.81-17.5,1.59-25.61-.12-5.09-1.07-15.79-6.85-20.14-3.97-2.18,1.45-2.71,4.07-.48,5.81,4.52,3.55,17.02,2.45,22.8,3.02,7.06.7,14.04,2.79,21.14,3.51,21.92,2.21,45.01,1.48,66.79-1.26,4.14-.52,8.24-1.83,12.42-2.25,4.91-.49,21.57.56,23.92-4.27.8-1.64-.16-3.6-1.61-4.56-4.35-2.89-14.99,2.91-20.13,3.97-8.19,1.68-17.47,1.95-25.61.12-2.16-.49-8.1-2.1-9.72-3.19-.98-.65-.38-.61,0-1.17.8-1.2,2.79-1.82,2.35-3.81ZM254.89,575.33c-1.33.59-2.08,2.12-1.27,3.43s11.53,7.24,13.59,8.13c22.55,9.73,44.85,9.38,66.52-2.55,1.53-.84,8.72-5.28,8.83-6.48.12-1.09-.82-2.64-1.99-2.53-6.43,3.28-12.65,6.54-19.64,8.54-17.17,4.91-29.81,4.8-46.93-.26-6.75-2-12.74-5.44-19.13-8.28Z" style="fill: #774d3c;"/>
  <path d="M124.18,487.73c-21.52,6.06-42.14-16.38-52.39-32.84-14.74-23.66-26.94-66.2-12.18-91.9,8.36-14.56,24.05-15.36,37.84-7.72,1.51.84,6.21,4.73,6.71,6.2,1.17,3.4.89,10,1.38,13.88,3.92,30.59,9.28,61.11,14.78,91.44.51,2.81,4.46,20,3.85,20.94ZM98.01,463.58c5.17,5.38,11.98-3.49,13.29-8.39,3.67-13.66-8.17-46.9-17.27-57.78-4.36-5.22-14.13-12.84-21.32-10.75-3.49,1.01-5.07,3.76-3.95,7.27l2.29.58c3.57-6.75,13.57,3.39,16.47,7.06,1.68,2.12,6.03,9.03,6.79,11.41.09.3.16.96-.28.86-16.09-8.07-23.64,4.12-19.83,19.25,1.69,6.73,7.72,19.76,14.84,21.83-2.38-9.28-15.12-27.25-7.89-36.36,2.9-3.65,13.43-1.07,15.94,1.9.85,1.01,3.7,10.5,4.23,12.5,1.87,7.03,5.49,21.15-.8,26.69-1.4,1.24-4.75,1.58-2.51,3.91Z" style="fill: #774d3c;"/>
  <path d="M471.69,487.73c-.62-.95,3.34-18.14,3.85-20.94,5.51-30.33,10.87-60.85,14.78-91.44.5-3.88.21-10.47,1.38-13.88,1.57-4.56,13.02-9.14,17.44-10.14,16.92-3.81,26.83,6.33,31.27,21.58,9.52,32.71-8.96,81.45-34.18,103.45-9.08,7.92-22.2,15.65-34.55,11.36ZM524.52,394.38c3.28,1.93,4.97-5.45-.95-7.54-7.39-2.61-17.59,5.51-22.01,10.9-9,10.96-21.1,44.84-16.72,58.36,1.51,4.67,8.01,12.64,13.02,7.49,2.24-2.31-1.11-2.69-2.51-3.91-6.28-5.49-2.67-19.66-.8-26.69.54-2.02,3.36-11.47,4.23-12.5,2.41-2.87,13.05-5.54,15.94-1.9,7.23,9.1-5.52,27.08-7.89,36.36,7.18-2.1,13.35-15.46,14.98-22.28,3.6-15.04-4.27-26.78-19.97-18.8-.44.09-.38-.57-.28-.86,1.54-4.82,8.58-14.15,12.62-17.31,2.66-2.08,8.72-6.11,10.35-1.3Z" style="fill: #774d3c;"/>
  <path d="M457.96,327.76l.46,1.25c-5.03,37.22-37.11,64.03-75.03,60.7-10.29-.9-28.9-6.11-36.18-13.7-3.35-3.5.07-11.24,1.68-15.38,5.17-13.35,16.05-30.35,28.46-37.85,24.87-15.02,57.8-12.92,80.62,4.97ZM367.16,345.78c-5.07,6.55-11.33,14.2-15.14,21.53-.8,1.54-3.08,5.81-2.19,7.23,1.22,1.93,13.83,6.21,16.62,6.86,18.88,4.4,35.82,3.43,53.33-5.01s25.53-23.94,30.65-41.39c-.51-1.77-17.02-7.64-19.89-8.01,1.38,3.17,3.28,5.82,3.84,9.36,3.56,22.33-14.5,45.88-38.16,44.03-15.5-1.21-26.94-20.64-29.06-34.61Z"/>
  <path d="M139.08,328.94c2.27-2.71,10.65-6.94,14.11-8.5,32.44-14.6,68.86-5.04,86.96,25.91,2.73,4.67,11.39,22.96,10.02,27.61s-17.35,11.47-21.94,12.72c-36.7,10-71.94-4.56-85.64-40.76-1.1-2.91-5.22-14.94-3.51-16.99ZM166.49,328.18l-20.5,7.67c4.93,16.1,13.44,32.36,28.91,40.55,12.43,6.58,23.05,8.32,37.09,7.55,11.72-.64,24.88-3.27,34.63-9.99-3.28-10.13-10.19-18.86-16.75-27.01-2.11,13.94-13.55,33.4-29.06,34.61-23.46,1.83-40.4-20.31-38.42-42.53.36-4.08,2.44-7.29,4.1-10.86Z"/>
  <path d="M193.37,239.73c10.53-1.07,21.61,3.18,30.64,8.33,19.74,11.25,13.26,31.92-9.1,31.4-12.5-.29-44.77-7.88-43-24.77,1.03-9.82,12.94-14.09,21.45-14.96Z"/>
  <path d="M395.8,238.55c12.26-1.22,35.27,5.14,28.14,21.69-5.5,12.74-37.01,20.07-49.27,17.3-13.13-2.96-18.07-15.4-8.39-25.67,5.34-5.66,21.8-12.54,29.52-13.31Z"/>
  <path d="M362.92,107.07c1.42,9.2,1.54,18.68.72,28.03-20.57-3.67-41.14-9.83-62.2-9.39l.59-27c20.63-.58,41.38,1.64,60.89,8.36Z"/>
  <path d="M293.83,98.71l.59,27c-20.98-.42-41.69,5.68-62.2,9.39-.67-9.31-.98-19.16.97-28.22,19.52-6.43,40.08-8.81,60.64-8.17Z"/>
  <path d="M224.58,110.45l-.67,26.91c-9.64,3.18-18.97,7.31-27.68,12.52-6.19,3.71-11.73,8.54-18.02,11.94-1.09-3.32-6.34-20.44-5.14-22.49,15.54-12.12,32.65-22.74,51.5-28.87Z"/>
  <path d="M422.78,139.32c1.1,1.89-3.95,19.81-5.44,22.75-13.9-10.34-28.68-19.63-45.4-24.72l-.67-26.91c18.86,6.12,35.94,16.78,51.5,28.87Z"/>
  <path d="M317.29,532.4c.45,2-1.54,2.61-2.35,3.81-.38.56-.97.52,0,1.17,1.63,1.09,7.56,2.7,9.72,3.19,8.15,1.83,17.42,1.56,25.61-.12,5.14-1.06,15.79-6.86,20.13-3.97,1.45.96,2.4,2.92,1.61,4.56-2.35,4.83-19.01,3.78-23.92,4.27-4.19.42-8.28,1.73-12.42,2.25-21.78,2.75-44.88,3.47-66.79,1.26-7.09-.72-14.07-2.81-21.14-3.51-5.78-.58-18.27.53-22.8-3.02-2.23-1.75-1.7-4.37.48-5.81,4.34-2.88,15.05,2.9,20.14,3.97,8.12,1.71,17.54,1.93,25.61.12,2.16-.49,8.1-2.1,9.72-3.19.98-.65.38-.61,0-1.17-.8-1.2-2.79-1.82-2.35-3.81,12.48,5.72,26.23,5.72,38.71,0ZM319.05,544.15c-1.7-.17-3.34-.58-4.91-1.26-1.66-.71-4.42-3.24-4.89-3.36-1.02-.26-4.73,1.42-6.4,1.61-2.24.27-5.9.26-8.18.09-2.41-.18-6.47-1.82-7.63-1.76-.62.03-3.77,2.75-5.33,3.42s-3.33.86-4.92,1.55c11.35,1.56,22.9.62,34.36.9l7.89-1.19Z"/>
  <path d="M428.79,145.07c1.03-1.05,17.43,17.5,18.76,19.09,3.82,4.55,7.63,9.32,11.05,14.18,1.36,1.93,7.08,9.84,7.5,11.33.29,1.02.18,1.25-.21,2.18-.55,1.34-6.85,11.75-7.54,11.89-2.8-1.89-4.48-5.69-6.71-8.46-8.08-10.05-17.82-19.14-27.25-27.91l-.28-2.56,4.67-19.73Z"/>
  <path d="M167.08,145.07l4.97,21.74c-9.62,8.97-19.57,18.2-27.83,28.46-2.23,2.77-3.91,6.57-6.71,8.46-.69-.14-6.98-10.55-7.54-11.89-.38-.93-.5-1.15-.21-2.18.42-1.49,6.14-9.4,7.5-11.33,8.36-11.86,18.83-23.89,29.81-33.27Z"/>
  <path d="M113.06,256.63c-1.12,7.16-3.19,14.15-4.06,21.37-.92,7.61-1.76,17.1-2.14,24.74-.08,1.62.11,4.69.31,6.4.1.88.2,1.01-.82.86-.96-.14-10.19-5.86-10.55-6.47-.34-11.8,1.79-24.27,4-35.91.61-3.23,2.36-14.17,3.62-16.33.6-1.02.71-.26,1.2-.01,2.72,1.37,5.24,4.64,8.45,5.36Z"/>
  <path d="M488.63,309.98c-.23-.24.5-5.73.46-6.74-.32-7.67-1.28-17.56-2.23-25.23-.87-7.11-2.77-14.05-4.15-21.06l9.14-6.22c.74,0,2.07,6.4,2.35,7.61,2.4,10.33,4.58,22.62,5.56,33.17.23,2.47,1.22,10.86,0,12.32-.75.9-10.49,6.84-11.14,6.16Z"/>
  <path d="M334.72,465.08c3.23,4.04-4.13,8.99-8.04,8.04l2.35-2.34c-4.02,1.58-9.23.36-13.07,1.3-5.65,1.38-8.82,7.21-17.13,7.52-10.04.37-12.79-6.27-18.92-7.52-3.83-.78-9.03.24-13.07-1.3l2.35,2.34c-6.43.19-13.04-5.61-5.11-10.09,13.12-7.4,19.28,8.7,31.28,10.04,14.31,1.59,21.96-14.23,31.92-11.98,1.5.34,6.54,2.86,7.44,4Z"/>
  <path d="M470.15,196.73c4.34,7.39,8.17,15.18,11.55,23.06,1.96,4.57,6.85,15.25,7.42,19.63.42,3.23-6.28,6.79-8.5,8.87l-1.3-.89c-3.1-7.92-6.34-15.8-9.94-23.51-1.13-2.42-6.86-12.29-7.05-13.54-.28-1.89,6.7-11.11,7.82-13.64Z"/>
  <path d="M125.72,196.73c1.13,2.53,8.1,11.75,7.82,13.64-.26,1.72-4.09,6.89-5.11,9.01-3.99,8.31-7.45,20.13-11.69,27.63-.33.58-.64,1.52-1.54,1.31-.51-.12-7.66-6.09-8.01-6.69-.56-.96-.6-1.09-.45-2.21.56-4.35,5.47-15.09,7.42-19.63,3.39-7.88,7.31-15.62,11.55-23.06Z"/>
  <path d="M353.67,525.36c-5.76-2.01-10.18-6.42-15.3-9.63-6.52-4.1-18.92-12.22-26.56-11.87-4.5.2-9.63,4.34-13.67,6.11-4.6-1.51-8.68-5.63-13.66-6.06-7.72-.66-20.4,7.71-26.97,11.82-5.05,3.16-9.49,7.85-15.31,9.33,2.75-5.17,8.05-9.61,12.64-13.18,7.01-5.46,16.15-11.07,25.22-11.74,8.17-.61,11.52,2.27,18.08,6.35,5.64-3.99,9.36-6.72,16.56-6.39,11.94.54,26.44,10.41,34.59,18.81.78.81,5,5.73,4.4,6.45Z"/>
  <path d="M254.89,575.33c6.38,2.84,12.38,6.28,19.13,8.28,17.12,5.07,29.75,5.18,46.93.26,6.99-2,13.21-5.26,19.64-8.54,1.17-.11,2.11,1.44,1.99,2.53-.12,1.2-7.3,5.64-8.83,6.48-21.67,11.92-43.98,12.28-66.52,2.55-2.06-.89-12.78-6.83-13.59-8.13s-.06-2.84,1.27-3.43Z"/>
  <path d="M238.08,321.71c-.95.16-1.59-.45-2.3-.93-6.55-4.45-11.22-9.82-18.81-14.05-27.41-15.25-45.18-8.87-69.78,6.53-.5.31-1.28,1.47-1.82.53,13.17-15.35,34.5-20.75,54.11-17.16,11.57,2.12,27.99,11.75,35.64,20.69.46.54,3.36,3.99,2.95,4.38Z"/>
  <path d="M451.66,312.91c-5.61-2.58-10.56-6.7-16.04-9.48-22.34-11.35-43.36-6.85-63.11,6.91-3.95,2.75-7.61,6.79-11.26,9.28-.71.48-1.35,1.08-2.3.93-.42-.39,2.49-3.84,2.95-4.38,13.99-16.35,38.77-24.92,59.84-20.56,10.71,2.22,23.5,8.39,29.92,17.31Z"/>
  <path d="M259.71,443.29c1.69,2.65-4.36,10.93-5.48,14-3,8.21-1.98,17.2,4.98,22.87-2.6-.31-4.53.4-6.75-1.17-10.67-7.54-3.68-30.13,5.76-36.26l1.49.56Z"/>
  <path d="M336.66,480.17c6.8-5.07,7.81-14.37,5.3-22.02-1.08-3.3-7.49-12.2-5.81-14.85,2.1-1.55,4.12,1.22,5.44,2.9,5.84,7.42,10.5,22.33,4.17,30.48-2.77,3.56-4.85,3.53-9.11,3.5Z"/>
  <path d="M270.36,452.59c.42-4.75,3.29-10.73,7.62-12.91l-4.8,7.23-2.82,5.68Z"/>
  <path d="M325.5,452.59l-2.82-5.68-4.8-7.23c4.33,2.18,7.2,8.16,7.62,12.91Z"/>
  <path d="M98.01,463.58c-2.24-2.33,1.11-2.68,2.51-3.91,6.29-5.55,2.67-19.67.8-26.69-.53-2-3.38-11.49-4.23-12.5-2.51-2.97-13.04-5.55-15.94-1.9-7.23,9.1,5.52,27.08,7.89,36.36-7.11-2.07-13.15-15.1-14.84-21.83-3.8-15.13,3.74-27.32,19.83-19.25.44.09.38-.57.28-.86-.76-2.37-5.11-9.28-6.79-11.41-2.9-3.67-12.89-13.81-16.47-7.06l-2.29-.58c-1.13-3.51.46-6.25,3.95-7.27,7.2-2.09,16.96,5.53,21.32,10.75,9.1,10.88,20.94,44.12,17.27,57.78-1.31,4.89-8.12,13.76-13.29,8.39Z"/>
  <path d="M524.52,394.38c-1.63-4.81-7.69-.78-10.35,1.3-4.04,3.16-11.09,12.49-12.62,17.31-.09.3-.16.96.28.86,15.7-7.98,23.57,3.76,19.97,18.8-1.63,6.82-7.8,20.18-14.98,22.28,2.38-9.28,15.12-27.25,7.89-36.36-2.89-3.64-13.52-.97-15.94,1.9-.87,1.03-3.69,10.48-4.23,12.5-1.87,7.03-5.49,21.2.8,26.69,1.4,1.22,4.75,1.6,2.51,3.91-5.01,5.15-11.51-2.82-13.02-7.49-4.37-13.52,7.73-47.4,16.72-58.36,4.43-5.39,14.62-13.51,22.01-10.9,5.92,2.09,4.23,9.47.95,7.54Z"/>
  <path d="M367.16,345.78c2.12,13.97,13.56,33.4,29.06,34.61,23.66,1.85,41.72-21.7,38.16-44.03-.57-3.54-2.46-6.19-3.84-9.36,2.87.37,19.38,6.24,19.89,8.01-5.11,17.45-13.74,33.24-30.65,41.39s-34.45,9.4-53.33,5.01c-2.8-.65-15.41-4.93-16.62-6.86-.9-1.42,1.39-5.69,2.19-7.23,3.81-7.34,10.07-14.98,15.14-21.53Z" style="fill: #fff;"/>
  <path d="M166.49,328.18c-1.66,3.57-3.73,6.78-4.1,10.86-1.98,22.23,14.96,44.37,38.42,42.53,15.51-1.21,26.95-20.68,29.06-34.61,6.56,8.15,13.47,16.88,16.75,27.01-9.75,6.72-22.91,9.35-34.63,9.99-14.04.76-24.66-.97-37.09-7.55-15.47-8.19-23.97-24.45-28.91-40.55l20.5-7.67Z" style="fill: #fff;"/>
  <path d="M319.05,544.15l-7.89,1.19c-11.46-.28-23,.65-34.36-.9,1.59-.68,3.29-.85,4.92-1.55s4.71-3.39,5.33-3.42c1.16-.06,5.22,1.58,7.63,1.76,2.28.17,5.93.18,8.18-.09,1.67-.2,5.38-1.87,6.4-1.61.47.12,3.23,2.65,4.89,3.36,1.57.68,3.21,1.09,4.91,1.26Z" style="fill: #fff;"/>
</svg>