<?xml version="1.0" encoding="UTF-8"?>
<svg id="face-shape" data-name="Calque 1" xmlns="http://www.w3.org/2000/svg" viewBox="0 0 909.82 1192.73">
  <path d="M269.45,737.7c4.81,5,11.13-3.24,12.35-7.79,3.41-12.69-7.59-43.57-16.04-53.68-4.05-4.85-13.12-11.93-19.81-9.98-3.24.94-4.71,3.49-3.67,6.75l2.13.54c3.32-6.27,12.61,3.15,15.3,6.56,1.56,1.97,5.6,8.39,6.31,10.6.09.28.15.89-.26.8-14.84-7.52-22.07,3.88-18.42,17.88,1.66,6.35,7.07,18.29,13.78,20.29-2.21-8.62-14.05-25.32-7.33-33.78,2.69-3.39,12.47-.99,14.81,1.76.79.93,3.43,9.75,3.93,11.61,1.74,6.53,5.1,19.64-.74,24.8-1.3,1.15-4.41,1.47-2.33,3.63Z"/>
  <g>
    <path d="M73.59,1193.09c5.45-23.84,15.88-48.45,28.45-69.41,22.71-37.87,47.24-57.77,89.72-70.01,48.98-14.11,116.53-27.72,156.83-59.6,31.33-24.79,27.73-56.8,23.11-93.42-.87-6.87-2.3-13.71-4.17-20.36-.87-1.76-9.22-6.86-11.51-8.66-32.04-25.21-48.42-64.46-59.5-102.69-31.49,9.09-56.74-24.65-67.67-49.81-9.19-21.17-14.69-48.28-7.28-70.71,5.54-16.78,19.31-26.96,37.35-22.34-10.25-78.7,12.98-164.86,79.96-211.98,96.53-67.91,236.82-38.88,290.65,67.85,13.59,26.94,20.67,57.17,23.51,87.16l.57,33.27-2.2,23.69c15.43-4.02,28.8,3.13,35.35,17.25,17.43,37.59-10.8,113.56-51.84,125.73-7.44,2.2-13.68,1.83-21.11-.12-11.08,38.24-27.46,77.49-59.5,102.69-2.29,1.8-10.65,6.9-11.51,8.66-4.97,21.5-7.85,46.7-6.44,68.84,2.72,42.75,49.01,61.34,83.29,74.81,32.53,12.78,65.49,20.1,98.92,29.73,42.49,12.24,67.02,32.14,89.72,70.01,12.57,20.96,23,45.57,28.45,69.41h-3.82c-11.47-34.41-27.98-69.52-52.6-96.51-25.86-28.36-59.07-35.33-94.9-44.66-50.42-13.12-86.2-21.69-129.6-52.48-22.11-15.68-26.2-27.09-27.11-54.13-.66-19.81.85-39.65,3.83-59.18-17.37,11.67-36.33,19.65-56.57,24.92-17.11,4.46-25.02,4.35-42.09-.12-20.1-5.26-38.89-13.22-56.14-24.81.61,6.66,2.08,13.24,2.72,19.9,1.63,16.99,3.16,52.91-3.35,68.07-7.5,17.49-28.88,30.64-45.01,40.04-34.88,20.33-68.78,27.77-107.24,37.77-35.84,9.32-69.04,16.3-94.9,44.66-24.61,26.99-41.12,62.1-52.6,96.51h-3.82ZM636.71,633.71l9.24-5.75.98-1.74c10.38-62.25-2.87-127.66-43.49-176.5-82.66-99.37-240.13-90.13-310.18,18.51-30.08,46.66-38.82,103.4-29.83,157.98l.98,1.74,9.24,5.75c.93-.71-.51-6.94-.56-8.42-.25-6.74-.11-14.58.58-21.28.08-.78.64-4.66,1.35-4.63,4.98,7.55,3.43,17.36,4.09,25.88,2.77,35.32,10.02,69.29,16.51,103.98,9.4,50.3,28.39,109.28,71.08,140.99,35.49,26.36,79.63,47.9,124.06,29.96,29.19-11.78,64.83-33.89,82.4-60.44,23.17-35,33.93-69.55,41.59-110.52,5.97-31.95,13.19-63.88,15.96-96.35.33-3.85.57-33.37,4.64-33.51.98,1.09,1.21,3.22,1.35,4.63.68,6.7.82,14.54.58,21.28-.05,1.49-1.49,7.71-.56,8.42ZM293.75,760.13c.57-.88-3.1-16.85-3.57-19.46-5.1-28.17-10.15-56.53-13.73-84.95-.45-3.6-.2-9.74-1.28-12.89-.47-1.36-4.83-4.98-6.24-5.76-12.81-7.1-27.39-6.36-35.16,7.17-14.02,24.4-2,64.87,12.4,87.01,9.6,14.75,28.13,34.4,47.58,28.87ZM616.61,760.13c19.46,5.52,37.99-14.12,47.58-28.87,14.4-22.14,26.42-62.61,12.4-87.01-7.77-13.53-22.34-14.27-35.16-7.17-1.4.78-5.77,4.4-6.24,5.76-1.08,3.15-.83,9.29-1.28,12.89-3.59,28.41-8.63,56.78-13.73,84.95-.47,2.61-4.15,18.58-3.57,19.46Z"/>
    <path d="M665.69,673.41c-1.51-4.47-7.15-.73-9.62,1.21-3.75,2.94-10.3,11.6-11.73,16.08-.09.28-.15.89.26.8,14.81-7.52,22.08,3.86,18.42,17.88-1.66,6.37-7.08,18.29-13.78,20.29,2.21-8.62,14.05-25.32,7.33-33.78-2.69-3.39-12.47-.99-14.81,1.76-.79.93-3.43,9.75-3.93,11.61-1.74,6.53-5.1,19.7.74,24.8,1.3,1.13,4.41,1.49,2.33,3.63-4.58,4.71-10.7-2.64-12.09-6.95-4.06-12.56,7.18-44.04,15.54-54.22,4.11-5.01,13.58-12.55,20.45-10.13,5.5,1.94,3.93,8.8.88,7.01Z"/>
    <path d="M269.45,737.7c-2.08-2.16,1.03-2.49,2.33-3.63,5.84-5.15,2.48-18.27.74-24.8-.5-1.86-3.14-10.68-3.93-11.61-2.34-2.76-12.12-5.15-14.81-1.76-6.72,8.46,5.12,25.16,7.33,33.78-6.7-2-12.12-13.94-13.78-20.29-3.65-13.99,3.58-25.4,18.42-17.88.41.09.35-.53.26-.8-.7-2.21-4.75-8.62-6.31-10.6-2.69-3.41-11.98-12.83-15.3-6.56l-2.13-.54c-1.05-3.26.43-5.81,3.67-6.75,6.69-1.95,15.76,5.14,19.81,9.98,8.45,10.11,19.45,40.99,16.04,53.68-1.22,4.55-7.54,12.79-12.35,7.79Z"/>
  </g>
</svg>