<?xml version="1.0" encoding="UTF-8"?>
<svg id="Calque_1" data-name="Calque 1" xmlns="http://www.w3.org/2000/svg" viewBox="0 0 909.82 1192.73">
  <path d="M473.17,801.63c.42,1.86-1.43,2.43-2.18,3.54-.35.52-.9.48,0,1.09,1.51,1.01,7.03,2.51,9.03,2.96,7.5,1.69,16.25,1.47,23.8-.11,4.73-.99,14.67-6.37,18.71-3.69,1.35.89,2.23,2.72,1.49,4.24-2.18,4.49-17.66,3.51-22.22,3.97-3.89.39-7.69,1.6-11.54,2.09-19.98,2.52-41.97,3.19-62.05,1.17-6.59-.66-13.07-2.61-19.64-3.26-5.37-.53-16.98.49-21.18-2.81-2.07-1.62-1.58-4.06.45-5.4,4.04-2.68,13.98,2.69,18.71,3.69,7.54,1.59,16.29,1.8,23.8.11,2.01-.45,7.52-1.95,9.03-2.96.91-.61.36-.56,0-1.09-.75-1.11-2.59-1.69-2.18-3.54,11.59,5.31,24.37,5.31,35.97,0ZM475.35,812.54c-1.63-.04-3.22-.41-4.73-1-1.74-.68-4.41-3.17-4.92-3.29-.95-.24-4.4,1.32-5.95,1.5-2.08.25-5.48.24-7.6.08-2.24-.17-6.01-1.69-7.09-1.64-.56.03-3.74,2.73-5.32,3.35s-3.19.74-4.74,1.26c10.74,1.39,21.63.62,32.46.84l7.88-1.11Z"/>
  <path d="M506.96,795.09c-5.36-1.87-9.46-5.96-14.21-8.95-6.06-3.81-17.58-11.35-24.68-11.03-4.18.19-8.95,4.03-12.7,5.68-4.27-1.41-8.07-5.23-12.69-5.63-7.18-.61-18.96,7.16-25.06,10.98-4.69,2.94-8.82,7.3-14.22,8.67,2.55-4.8,7.48-8.92,11.74-12.25,6.51-5.07,15-10.29,23.43-10.91,7.59-.56,10.7,2.11,16.79,5.9,5.24-3.7,8.7-6.24,15.39-5.94,10.99.5,24.32,9.51,31.89,17.18.75.76,4.89,5.63,4.33,6.29Z"/>
  <path d="M415.19,841.52c5.93,2.64,11.5,5.84,17.77,7.69,15.91,4.71,27.64,4.81,43.6.25,6.5-1.86,12.27-4.88,18.24-7.93,1.09-.1,1.96,1.34,1.85,2.35-.11,1.12-6.78,5.24-8.21,6.02-20.13,11.08-40.86,11.41-61.8,2.37-1.91-.83-11.87-6.35-12.62-7.55s-.06-2.64,1.18-3.19Z"/>
  <path d="M475.35,812.54l-7.88,1.11c-10.83-.23-21.72.54-32.46-.84,1.55-.52,3.19-.66,4.74-1.26s4.76-3.32,5.32-3.35c1.08-.05,4.85,1.47,7.09,1.64,2.11.16,5.51.16,7.6-.08,1.55-.18,5-1.74,5.95-1.5.51.13,3.17,2.62,4.92,3.29,1.51.59,3.1.96,4.73,1Z" style="fill: #fff;"/>
</svg>