<?xml version="1.0" encoding="UTF-8"?>
<svg id="nose" data-name="Calque 1" xmlns="http://www.w3.org/2000/svg" viewBox="0 0 909.82 1192.73">
  <path d="M489.36,739.09c3,3.75-3.84,8.35-7.46,7.47l2.18-2.17c-3.75,1.44-8.59.48-12.14,1.21-4.86,1-8.22,6.7-15.92,6.99-9.32.35-11.88-5.82-17.58-6.99-3.55-.73-8.39.23-12.14-1.21l2.18,2.17c-5.97.18-12.12-5.21-4.74-9.38,12.19-6.88,17.91,8.08,29.06,9.32,13.29,1.48,20.41-13.22,29.66-11.13,1.39.31,6.07,2.66,6.92,3.71Z"/>
  <path d="M419.67,718.85c1.57,2.46-4.05,10.16-5.09,13.01-2.78,7.63-1.84,15.98,4.63,21.25-2.42-.29-4.21.37-6.27-1.09-9.87-6.97-3.52-28.05,5.35-33.69l1.39.52Z"/>
  <path d="M491.16,753.11c6.22-5.05,7.35-13.05,4.93-20.46-1-3.06-6.96-11.33-5.39-13.8,1.98-1.44,3.8,1.13,5.05,2.69,5.49,6.79,9.69,20.83,3.87,28.32-2.57,3.31-4.5,3.28-8.46,3.25Z"/>
  <path d="M429.57,727.49c.39-4.41,3.05-9.97,7.08-11.99l-4.46,6.71-2.62,5.28Z"/>
  <path d="M480.8,727.49l-2.62-5.28-4.46-6.71c4.02,2.02,6.69,7.58,7.08,11.99Z"/>
</svg>