<?xml version="1.0" encoding="UTF-8"?>
<svg id="Calque_1" data-name="Calque 1" xmlns="http://www.w3.org/2000/svg" viewBox="0 0 576.62 222.41">
  <path d="M344.58,141.98l-2.43,14.17c-7.92,44.16-50.73,62.47-64.33,8.15-4.4-17.55-3.22-37.8-2.45-55.81.04-.85.56-1.59.55-2.44-3.45,1.58-6.39,4.03-9.79,5.73-1.97.98-8.22,2.92-9.28,3.79-1.22,1.01.3,5.96.48,7.69,2.12,20.95,1.22,41-7.47,60.45-16.45,36.85-51.87,43.69-71.33,4.65-7.57-15.18-10.71-35.78-9.41-52.64.64-8.4,5.22-24.8,16.48-23.02,10.61,1.68,4.67,15.32,4.23,21.93-1.06,15.8,4.46,46.11,17.72,56.33s25.74-12.06,29.55-22.17c5.81-15.43,6.65-32.91,4.79-49.16l-.61-.46c-20.35,3.05-46.7-10.41-51.3-31.53-4.08-18.74,9.29-54.59,33.99-40.49,16.28,9.3,24.75,35.06,28.53,52.36l24.03-9.06c.31-.66.43-1.37.49-2.1.81-8.43.1-17.69,1.15-26.08,1.17-9.36,11.38-13.19,16.54-5.2,2.59,4.01,3.36,14.38,3.59,19.28,1.22,26.19-4.47,55.29,1.33,80.87.82,3.61,5.41,19.23,9.29,19.61,4.4-.87,7.47-4.53,9.96-8.01,18.57-25.97,14.54-84.93,23.15-116.79.92-3.4,2.24-8.58,6.64-8.62,6.7-.06,8.24,9.95,8.93,15.06,3.06,22.41,1.8,46.8,3.89,69.61,1.92,20.9,7.62,41.25,9.74,61.59.34,3.24,1.51,18.58-1.93,19.72-6.72,2.23-13.46-13.78-15.05-18.54-5.09-15.23-7.48-32.98-9.66-48.88ZM210.91,54.44c-5.34,1.2-8.73,14.49-9.1,19.22-1.33,17.12,12.39,26,27.67,28.41,2.28.36,10.13,2.12,9.82-1.05-.44-4.5-3.16-13.72-4.65-18.27-2.66-8.14-12.67-30.81-23.75-28.31Z"/>
  <path d="M501.44,48.45c-3.4-1.95-9.97,8.4-11.43,10.95-13.87,24.22-24,81.18-26.6,109.52-.57,6.16.38,16.66-1.47,21.94-2.97,8.47-14.27,6.1-15.36-4.05-1.61-14.93.02-31.26.47-46.21.57-18.82,4.47-63.11-3.6-78.6-3.67-7.04-5.25-4.83-8.31.83-9.4,17.43-15.75,51.92-19.53,71.95-3.24,17.18-4.61,31.56-6.17,48.82-1.37,15.08-19.49,15.97-22.64-.23-.97-5.01-1.41-11.47-1.87-16.64-3.02-34.05-2.63-68.25-6-102.34-.67-6.76-5.77-21.72,4.22-23.56s12.99,10.57,14.69,17.73c4.39,18.44,4.41,38.44,6.44,57.26,3.44-9.62,6.12-19.5,9.53-29.13,3.29-9.3,11.85-34.65,20.33-39.03,11.29-5.82,20.73,7.08,24.23,16.31,3.73,9.82,4.74,20.98,5.05,31.43l1.08,6.26c5.08-16.45,9.86-35.37,18.64-50.25,15.9-26.93,33.45-16.08,38.42,10.41,4.76,25.37,2.98,55.6,2.33,81.46-.46,18.42.61,46.06-5.56,63.04-8.93,24.58-14.56-7.05-15.12-16.21-1.41-23.06,1.49-48.14,2.2-71.29.57-18.54,2.53-45.28-1.27-63.01-.28-1.33-1.78-6.89-2.67-7.4Z"/>
  <path d="M49.2,109.31c16.18-18.68,34.63-35.39,53.39-51.45,12.72-10.88,31.58-23.52,41.96-35.94,3.2-3.82,6.62-13.84,12.83-8.98,8.04,6.3-2.16,21.29-6.84,26.94-16.34,19.76-42.34,39.14-61.31,57.43-3.01,2.9-24.64,24.13-24.24,25.86,27.46,16,56.21,29.84,81.46,49.3,7.41,5.71,22.55,17.05,25.48,25.72,2.08,6.17.39,11.31-6.92,10.72-9.37-.76-29.6-18.36-38.25-24.39-15.16-10.56-31.13-19.97-47.22-29.05-6.89-3.89-16.52-10.16-23.41-13.09-.69-.29-1.24-.57-2.02-.42.52,4.07,1.21,8.17,1.63,12.25,1.42,13.83,4,34.44,2.66,47.84-.97,9.72-9.63,19.6-16.94,8.34-6.19-9.55-7.59-45.27-9.23-58.29C26.51,106.71,16.78,62.04,8.83,17.03c.31-9.45,10.6-13.74,16.92-6.52,4.79,5.47,9.87,30.64,11.74,38.9,4.5,19.84,7.89,39.92,11.72,59.89Z"/>
  <path d="M555.9,194.36c15.29-3.12,15.34,17.83,2.99,18.82-11.6.93-12.08-16.96-2.99-18.82Z"/>
</svg>