<?xml version="1.0" encoding="UTF-8"?>
<svg id="Calque_1" data-name="Calque 1" xmlns="http://www.w3.org/2000/svg" xmlns:xlink="http://www.w3.org/1999/xlink" viewBox="0 0 2856.11 1033.91">
  <rect x="1411.37" y="4.97" width="1444.73" height="1024" style="fill: #e8f0ff;"/>
  <line x1="1369.59" y1="829.4" x2="2856.11" y2="829.4" style="fill: none; stroke: #92aae9; stroke-miterlimit: 10; stroke-width: 6px;"/>
  <rect x="1558.94" y="760.25" width="335.91" height="118.9" style="fill: #e8f0ff;"/>
  <image width="1536" height="1024" transform="translate(1.92 4.97)" xlink:href="ChatGPT Image 5 nov. 2025, 22_45_04.png"/>
  <path d="M2313.13,387.65h252.84c3.1,0,4.48-29.97-1-29.97h-45.47v-61.44c-.79-5.55-6.06-12.85-11.72-14.26-4.75-1.18-7.35,2.11-7.36-5.72,0-4.47.11-8.48.03-12.96-.08-4.35,2.19-11.04-1.98-13.98-2.78-1.96-22.57-2.24-26.41-1.51-2.57.48-4.3,2.8-3.45,5.34.9,2.69,7.61,2.32,7.91,2.64.83.89-1.67,21.69-1.12,24.33-3.4,2.56-6.93,1.66-10.89,5.09-1.81,1.56-5.97,8.02-5.97,10.02v62.44h-8.99v-35.47c0-.48-2.34-5.42-2.95-6.05-3.23-3.39-24.35-3.19-29.06-1.97-3.35.87-7.97,5.69-7.97,9.02v34.47h-9.99v-62.44c0-5.45-9.55-5.08-9.99-5.5-.71-.67,1.6-9.41-2.03-12.46-3.35-2.81-28.46-4.11-29.88.1-2.64,7.85,13.92,4.99,18.4,5.38,5.03.43,6.31.61,5.51,5.99-3.79-.84-14.99.48-14.99,5.49v61.94c0,.11-1.39,1.5-1.5,1.5h-50.97c-5.06,0-4.52,29.97-1,29.97ZM2392.63,354.24c-.12,1.01-.46,3.45-1.55,3.45h-17.49v-58.44c0-3.94,17.57-2.78,18.05-.89-.73,3.79.77,7.25.98,10.84.67,11.77,1.33,33.82,0,45.05ZM2417.56,336.7h23.98v20.98h-23.48c-.83,0-1.13-1.51-1.25-2.29-.73-4.85,1.33-13.43.75-18.69ZM2441.55,328.71h-23.98c.12-2.15-.86-6.03,1.64-6.85,2.18-.71,21.09-.41,21.91.79.95,1.39.27,4.33.44,6.06ZM2493.52,266.78h-10s.11-10.89.11-10.89c10.15-2.46,10.73,1.68,9.9,10.89ZM2493.52,274.76v6h-10v-6h10ZM2511.5,356.18c0,.11-1.39,1.5-1.5,1.5h-43.47v-60.44c0-1.66,3.41-6.03,5.08-6.91,4.36-2.3,25.71-2.23,30.95-1.14,3.26.68,8.94,4.77,8.94,8.05v58.94ZM2319.63,365.67h239.84v13.99h-239.84v-13.99Z" style="fill: #9bb4ef;"/>
  <path d="M1894.86,138.49c0-.31-1.72-3.02-2.22-3.32l-326.54-.6c-2.44-.33-7.16,1.15-7.16,3.92v713.93c.04.17.06.34.06.53v44.96c.61,1.82,7.32,1.82,8.85.87,6.18-5.2,24.72-8.93,29.4-13.81,3.92-4.1,1.03-15.73,1.6-21.12h272.72v32.69c0,.37,2.54,2.14,3.31,2.34,3.81,1.01,15.54-11.81,19.64-18.93-.54-8.99.3-18.08.33-27.08V138.49ZM1880.44,144.58h5.54v430.01h-5.54V144.58ZM1598.85,144.58h272.72v139.64h-72.06c12.79-12.69,10.15-33.78-6.63-41.56,13.57-14.36,5.98-40.61-14.94-41.6-39.38,2.31-81.94-2.92-120.93,0-15.81,1.18-23.23,13.12-21.57,28.31.57,5.2,4.25,13.34,9.98,13.86-2.11,3.34-5.83,4.46-8.24,7.82-7.13,9.93-4.87,25.06,3.81,33.17h-42.13v-139.64ZM1791.76,396.7c1.34,20.47,3.82,40.97,3.31,61.52h-34.37l5.54-80.08c1.47-2.7,20.69-2.65,23.29-1.38,3.79,1.84,1.93,15.43,2.22,19.94ZM1781.77,367.35l-.06-11.52c5.4-3.83,24.98,2.07,24.26-6.52-.57-6.84-19.97-3.58-25.23-3.39-3.36.12-14.05-2.71-14.19,3.3-.14,6.07,6.59,4.05,7.39,6.61.49,1.56-2.24,8.67-1.04,11.51-21.25-.26-15.74,19.45-16.64,33.79-.88,13.99-2.58,28.1-3.36,42.08-.27,4.81.61,10.37.05,15.01h-53.22c.56-14.27-1.16-28.47-2.2-42.68-.65-8.87,2.13-18.84-5.52-25.51-5.73-4.99-13.9-3.3-14.45-3.84-.95-.94,2.01-12.9-2.27-16.02-2.3-1.68-5.88-.61-6.59-4.49-.24-1.32-.37-10.16,0-10.52,1.59-1.51,18.08-.37,21.38-1.34,3.24-.95,3.31-5.85,1.67-7.32-2.87-2.58-29.25-1.83-33.12,1.36-5.64,4.65.91,5.71,1.22,6.96.36,1.43.3,10.32-.02,11.98-.6,3.16-4.95,3.27-6.16,7.14-.92,2.94-.05,11.83-.49,12.25-.67.64-11.12-1.7-16.46,6.27-.62.93-3.5,7.11-3.5,7.58v56.52c0,.34,1.4.85,1.11,1.66h-35.48v-164.02c32.13-.03,64.32.04,96.45,0,58.74-.08,117.53.06,176.27,0v164.02h-67.63c-.94-26.71-2.42-53.45-4.72-80.07-2.38-9.87-7.71-11.8-17.46-10.8ZM1684.2,395.62c1.99.9,4.04,4.52,4.39,6.7,1.45,9.12.75,22.48,1.18,32.07.35,7.66,2,15.84,1.1,23.84h-48.79s1.26-59.15,1.26-59.15c1.29-1.8,2.47-3.54,4.87-3.99,3.92-.75,33.85-.42,35.99.54ZM1663.67,376.13c7.97-1.08,6.1,4.19,6.14,10.06-.16.04-3.15.02-3.33,0-1.84-.18-4.6.7-5.43-1.83-.72-2.21.29-7.92,2.62-8.23ZM1657.05,249.87c40.01,3.31,87.24-4.42,126.39,0,15.7,1.77,19.65,17.72,9.02,28.42-2.53,2.55-7.59,5.52-11.22,5.96l-124.12-.09c-18.84-4.92-21.34-31.11-.07-34.29ZM1655.1,210.23l122.72-.19c16.02,2.47,16.18,28.73,1.08,30.86h-120.64c-16.83-2.29-19.53-25.79-3.16-30.67ZM1598.85,468.2h272.72v106.39h-130.82c8.9-6.8,16.54-13.37,20.8-24.09.83-2.1,3.59-10.34,3.59-11.92v-16.07c-1.09.36-2.41-1.11-2.77-1.11h-95.34c-5.6,0-3.2,16.83-2.49,20.22,3.24,15.49,11.88,23.93,24.11,32.97h-88.14c-.12,0-1.66-1.54-1.66-1.66v-104.73ZM1727.45,571.27c-3.2,2.92-13.85,3.09-18.69,2.6-3.13.54-5.03-.33-5.7-2.6-16.93-2.66-31.32-24.47-31.04-41.01h84.26c.37,19.7-11.49,33.45-28.82,41.01ZM1597.74,296.42v15.52c-.05-4.97-.08-9.93-.13-14.9l.13-.62ZM1595.14,150.89c.71-1.4-.36-3.27,1.49-2.98v21.06c-1.95.25-1.06-2.51-1.11-3.86-.12-3.28.22-6.48-.22-9.76-.22-1.62-1.73-2.73-1.99-3.58-.16-.53,1.61-.41,1.84-.87ZM1567.81,144.58h23.28v135.76c0,.61-.36,3.65-.52,3.89l-1.15.93c-.49-.02-.84-.93-1.11-.93h-20.51v-139.64ZM1567.81,294.2h23.28v164.02h-23.28v-164.02ZM1567.81,468.2h23.28v104.73c0,.12-1.55,1.66-1.66,1.66h-21.62v-106.39ZM1591.15,848.94c-.06,3.49-1.27,6.53-1.26,9.92,0,6.48,2.99,13.27-1,19.96l-21.07,9.41v-265.98c3.86.93,19.04-2.15,21.67-.71,1.29.7,1.36.87,1.61,2.36-1.36,74.93,1.43,150.04.05,225.05ZM1567.81,612.27v-28.81h186.25c37.35,0,80.99,2.78,117.51,0,.1,9.59-.07,19.23,0,28.81h-303.76ZM1871.57,853.87h-272.72v-231.07l272.72-.55v231.63ZM1885.99,877.7c0,.37-4.42,4.55-5.54,4.99v-299.23h5.54v294.24Z" style="fill: #9bb4ef;"/>
  <g>
    <path d="M2135.32,267.56l-155.24-.24c-2.1,1.01-3.77,2.8-3.76,5.23v185.92s1.53,5.47,1.53,5.47l159.02.07.91-194.92-2.46-1.54ZM2130.27,456.93h-144.41c-.11,0-1.5-1.39-1.5-1.5v-178.83l146.46-.53-.56,180.85Z" style="fill: #9bb4ef;"/>
    <path d="M2005.79,441.01c33.1-2.47,70.45,3.07,103.04-.01,2.32-.22,4.17-.29,6-1.99l.54-145.51-112.31-1.19c-2.1,1.01-3.77,2.8-3.76,5.23v136.98c-.31,3.92,2.62,6.8,6.49,6.49ZM2007.35,300.08h100.43c.11,0,1.5,1.39,1.5,1.5v129.87c-.82,2.64-9.52,1.13-12,1.5.39-7.96,1.6-14.07-.47-22.01-2.97-11.41-15.59-19.49-15.51-31.45.08-11.07,9.19-12.93,11.3-21.66,8.58-35.53-50.44-43.34-59.81-9.84-1.48,5.28-.71,11.47-1.52,16.46-1.29,7.87-14.75,18.31-19.93,25.04-1.65,2.15-2.03,5.18-4,6.49v-95.91ZM2007.35,412.47c0-10.9,18.29-24.69,24.5-32.46,8.36-10.45,5.97-15.37,7.93-27.04,4.12-24.47,42.63-21.99,45.47-5.39,2.1,12.29-8.43,15.34-10.49,25.37-3.82,18.52,4.37,21.32,11.97,34.11,5.2,8.76,4.13,16.42,1.58,25.89h-52.97c1.57-18.95,23.55-20.84,29.45-38.99.87-2.67,3.43-12.73-.96-13.05-6.21-.46-4.67,5.46-6.31,9.78-5.12,13.51-18.17,16.78-25.62,27.34-3.38,4.79-3.64,9.94-6.06,14.92h-18.49v-20.48Z" style="fill: #9bb4ef;"/>
  </g>
  <rect x="2367.94" y="775.52" width="209.22" height="118.9" style="fill: #e8f0ff;"/>
  <g>
    <path d="M2580.69,583.52l-2.79-1.74-210.76.08c-.69.63-3.42,3.06-3.42,3.38v56.06h-71.38c-.54-12.18.71-24.69.05-36.86-.23-4.3-.77-11.49-1.45-15.54-.79-4.74-3.91-8.93-8-11.29-1.17-.68-3.75-.63-4.06-.99-.76-.86.25-7.04-.13-8.94h20.96c1.13,0,6.26,2.58,6.27-2.84,0-5.07-8.41-4.58-9.1-5.1-.16-.12,1.05-2.5,1.16-3.92.28-3.67-.36-19.37-3.05-21.08-1.47-.93-3.7-.94-5.43-1.09-6.9-.58-38.63-1.03-43.72.56-8.56,2.66-5.75,17.66-2.02,23.66,1.83,2.94,7.71,6.59,8.13,7.83.15.45.44,8.95.37,9.42-.18,1.25-9.77,5.33-10.95,11.25v54.93h-69.68c-.44,0-2.55,1.32-2.91,1.91-1.54,2.48-1.62,31.41-1.07,36.06.18,1.53,1.46,6.21,2.86,6.21h16.43v143.84h-.06v10.19h.06v20.95c0,2.42,9.8,6.68,9.96-4.53.77-55.19-2.39-111.16-.95-166.54-.25-1.16.82-3.91,1.76-3.91h165.98v172.72c0,5.09,11.4,3.99,14.73,3.96v26.62c0,5.15,26.06,6.11,26.06,0v-26.62h135.95v25.48c0,6.79,20.91,6.31,24.86,3.34,4.97-3.74.85-27.36,2.32-28.83.71-.7,12.17,2.17,13.58-5.11l-.53-273.51ZM2249.3,542.76h39.65v16.99l-30.64-1.65c-6.71-2.82-9.43-8.16-9.01-15.34ZM2269.69,567.67v9.07h-7.94v-9.07h7.94ZM2250.43,589.76c0-6.6,19.8-5.73,24.29-5.03,4.67.73,8.56,6.5,8.56,10.69v45.87h-32.86v-51.53ZM2363.72,676.41h-186.94v-22.09c0-.81.84-3.96,1.7-3.96h185.24v26.05ZM2396.58,881.97c0,2.19-7.23,1.8-9.06,1.7v-21.52h9.06v19.82ZM2558.59,883.67c-1.83.1-9.06.49-9.06-1.7v-19.82h9.06v21.52ZM2571.05,851.95h-198.26l-.06-65.18c-.25-1.16.82-3.91,1.76-3.91h196.57v69.09ZM2571.05,773.81c-.83.3-1.35-1.13-1.7-1.13h-196.57v-67.39c0-.12,1.58-1.7,1.7-1.7h196.57v70.22ZM2571.05,694.53h-196.57c-.12,0-1.7-1.58-1.7-1.7v-68.52h198.26v70.22ZM2571.05,615.25h-198.26v-19.82c0-1.1.71-4.84,1.77-5.06l196.5-.03v24.92Z" style="fill: #9bb4ef;"/>
    <path d="M2445.81,665.13c13.33,1.15,42.57,1.45,55.58-.03,5.63-.64,9.33-5.54,4.42-9-5.76-4.06-51.02.6-61.15-1.28-4.3-.05-8.25,5.4-4.75,8.84,1.3,1.28,4.11,1.3,5.9,1.45Z" style="fill: #9bb4ef;"/>
    <path d="M2441.33,822.51h63.44c4.58,0,3.22-8.16,0-9.06h-63.44c-2.37,0-2.37,9.06,0,9.06Z" style="fill: #9bb4ef;"/>
    <path d="M2439.61,743.25h63.44c4.58,0,3.22-8.16,0-9.06h-63.44c-2.37,0-2.37,9.06,0,9.06Z" style="fill: #9bb4ef;"/>
  </g>
  <rect x="2687.32" y="817.41" width="104.79" height="62.82" style="fill: #e8f0ff;"/>
  <g>
    <path d="M2812.84,726.81c-12.32,1.98-23.92,10.63-34.18,16.79-.76.46-1.75,1.99-2.54.46,14.05-23.87,27.72-48.62,38.83-74.07,2.79-6.39,12.9-29.22,12.15-34.77-1.11-8.28-11.43-2.48-15.31-.35-23.65,12.92-41.7,39.79-52.66,63.74-.62,1.37-.74,3.32-1.99,2.99-.94-2.06.87-4.05.99-4.99,4.53-34.64,6.68-78.97-.15-113.24-.87-4.36-2.17-11.04-8.21-10.39-6.77.74-12.8,22.47-14.33,28.51-7.22,28.56-8.01,59.77-8.3,89.11-1.44.23-1.39-1.76-1.68-2.79-6.7-23.82-13.92-57.35-30.77-76.14-3.15-3.51-12.69-12.31-15.29-3.27-.98,3.4-.49,18.35-.2,22.76,2.03,30.93,13.5,62.23,22.96,91.42-11.36-12.27-21.71-25.44-36.66-33.77-8.8-4.91-24.72-12.2-18.48,5.49,8.22,23.32,30.97,54.85,47.65,73.25l22.5,21.96h-33.48c-.75,0-2.26,2.43-2.47,3.52-3.08,16.11,5.96,67.03,18.07,78.79,4.92,4.78,11.59,7.14,18.34,7.65,11.17.83,35.23,1.27,45.93-.13,5.21-.68,12.17-4.35,15.58-8.41,11.37-13.55,19.63-57.55,18.03-74.98-.13-1.45-.94-6.45-2.55-6.45h-21.49c14.77-12.11,29.59-25.16,40-41.43,4.03-6.3,15.41-23.79-.29-21.27ZM2781.9,674.89c8.96-12.57,20.95-25.74,35.19-32.24-16.79,42.33-38.32,82.7-61.54,121.79l-14.4,19.06c5.45-38.42,18.1-76.87,40.74-108.61ZM2744.88,597.93l5.25-13.22c10.23,59.18.19,118.89-11.99,176.82l-1.98-7.49c-3.2-51.84-4.39-105.59,8.72-156.11ZM2693.47,667.84c-4.28-17.56-6-35.17-7.27-53.16,10.37,10.52,17.05,26.54,21.99,40.44,13.09,36.81,18.55,75.62,21.97,114.41.06.68,2.02,3.75.99,5.99-1.23.33-1.39-1.63-1.99-2.99-13.21-29.89-27.95-72.93-35.69-104.68ZM2655.22,692.6c16.31,7.99,30.56,22.56,41.38,37.05,13.33,17.86,23.26,38.3,31.56,58.86-30.07-26.77-56.87-58.62-72.93-95.91ZM2789.12,797.5c-.05,14.75-2.4,30.76-6.48,44.97-2.73,9.5-7.1,24.39-17.29,27.67-7.09,2.29-39.26,2.2-47.69,1.29-16.14-1.74-20.61-19.78-23.8-33.15-3.17-13.28-5.03-27.13-4.67-40.78h99.93ZM2805.74,744.68c-8.05,12.17-36.95,42.61-51.19,44.74-2.42.36-4.97-.02-7.41.08,16.53-21.95,35.21-45.26,62.95-52.93.57.54-3.67,7.07-4.36,8.12Z" style="fill: #9bb4ef;"/>
    <path d="M2759.14,698.59l-1-2c-.19,2.37.14,3.03,1,2Z" style="fill: #9bb4ef;"/>
    <path d="M2730.16,769.52l-1,3c1.16.11,1.49-.89,1-3Z" style="fill: #9bb4ef;"/>
  </g>
</svg>